<svg xmlns="http://www.w3.org/2000/svg" xml:space="preserve" width="1500" height="140" data-id="lg_LZsXPFzMOonOPjXxOf" data-version="1" viewBox="0 0 1500 140"><g data-padding="20"><g transform="translate(10 2.487)scale(.96448)"><rect width="560" height="140.12" x="88.336" y="-400.04" fill="none" rx="0" ry="0" transform="translate(400.5 399.98)"/><path fill="#ffa14a" d="M485.676 89.48q0-1.73 1.06-2.85 1.05-1.12 2.48-1.12 1.42 0 2.17.75 0 6.82 4.4 11.78t11.72 7.44V25.62q-12.16 3.1-12.16 10.17 0 2.36.75 4.59-.75 1.49-3.35 1.49t-4.46-1.86-1.86-4.96q0-5.58 5.64-9.8t15.44-6.2v-5.7q0-3.72 1.86-5.65 1.86-1.92 4.58-1.92 2.73 0 4.72 1.74v10.29q1.24-.12 3.72-.12 20.58 0 33.6 11.65 6.45 5.95 10.11 15.81 3.65 9.86 3.65 22.88 0 22.57-13.33 34.16-13.33 11.6-35.4 11.6-16.74 0-26.04-7.32t-9.3-16.99m37.33-65.72-3.85.13v83.7h1.86q16.99 0 27.16-9.43 10.17-9.42 10.17-30.44t-9.55-32.49-25.79-11.47m88.79 36.21q0-3.72 2.11-5.64t5.08-1.92q2.98 0 4.71 1.73v35.59q0 7.07 2.24 10.66 2.23 3.6 6.07 3.6 3.85 0 7.44-4.46 4.22-5.34 4.22-19.72.12-.74 1.86-.74 2.23 0 2.23 6.57 0 10.54-4.53 16.86-4.52 6.33-12.71 6.33-13.02 0-17.11-11.78-4.83 11.78-17.73 11.78-7.69 0-12.4-4.65t-4.71-13.33V59.97q0-3.72 1.86-5.64t4.71-1.92 4.59 1.73v35.59q0 14.76 7.44 14.76 5.58 0 10.1-6.7 4.53-6.7 4.53-18.85Z"/><path fill="#ffa14a" d="M680.606 56q1.61-3.59 5.15-3.59 3.53 0 5.27 1.73v35.59q0 7.07 2.23 10.66 2.23 3.6 6.07 3.6 11.66 0 11.66-24.18.12-.74 1.86-.74 2.23 0 2.23 6.57 0 10.54-4.52 16.86-4.53 6.33-12.71 6.33-12.53 0-16.62-11.04-2.36 5.08-6.45 8.06t-9.3 2.98q-21.7 0-21.7-28.4 0-14.38 6.76-21.2t17.92-6.82q8.55 0 12.15 3.59m-23.31 39.68q1.73 5.46 3.97 6.88 2.23 1.43 5.95 1.43t8.12-4.65 4.4-12.09V70.26q0-5.83-3.04-9.42-3.03-3.6-6.82-3.6-3.78 0-6.01.75-2.23.74-4.22 3.1-4.09 4.46-4.09 19.34 0 9.8 1.74 15.25"/><path fill="#ffa14a" d="M711.366 86.75V39.14q0-16.12 3.1-23.38 3.1-7.25 11.91-7.25 4.71 0 7.31 3.97 2.61 3.97 2.61 11.28 0 13.27-13.77 27.03v6.58q4.59-4.96 11.66-4.96 10.79 0 17.73 7.31 6.94 7.32 6.94 20.71t-6.69 20.89q-6.7 7.51-17.3 7.51t-17.05-6.08-6.45-16m35.71-6.32q0-12.9-2.72-18.04-2.73-5.15-9.68-5.15-6.94 0-9.54 4.34-2.61 4.34-2.61 14.88v6.45q0 11.16 2.92 16.12 2.91 4.96 9.61 4.96 6.69 0 9.36-5.33 2.66-5.33 2.66-18.23m-20.58-67.08q-2.48 0-3.22 5.02-.75 5.02-.75 21.02v5.45q8.43-10.91 8.43-21.2t-4.46-10.29M804.236 56q1.61-3.59 5.14-3.59 3.54 0 5.27 1.73v35.59q0 7.07 2.24 10.66 2.23 3.6 6.07 3.6 11.66 0 11.66-24.18.12-.74 1.86-.74 2.23 0 2.23 6.57 0 10.54-4.53 16.86-4.52 6.33-12.71 6.33-12.52 0-16.61-11.04-2.36 5.08-6.45 8.06t-9.3 2.98q-21.7 0-21.7-28.4 0-14.38 6.76-21.2t17.92-6.82q8.55 0 12.15 3.59m-23.31 39.68q1.73 5.46 3.96 6.88 2.24 1.43 5.96 1.43t8.12-4.65 4.4-12.09V70.26q0-5.83-3.04-9.42-3.04-3.6-6.82-3.6t-6.01.75q-2.23.74-4.22 3.1-4.09 4.46-4.09 19.34 0 9.8 1.74 15.25"/><path fill="#ffa14a" d="M871.316 79.07q2.23 0 2.23 6.57 0 9.55-5.2 16.37-5.21 6.82-13.27 6.82-10.05 0-15.01-5.96-4.96-5.95-4.96-16.86V39.39q0-16 3.35-23.44t11.78-7.44q12.28 0 12.28 16.62 0 12.52-4.9 20.08-4.9 7.57-11.22 11.29v33.23q0 7.07 2.73 10.66 2.72 3.6 7.44 3.6 4.71 0 8.8-5.7 4.09-5.71 4.09-18.48.25-.74 1.86-.74m-14.13-53.82q0-11.9-5.96-11.9-1.48 0-2.29.99t-1.43 4.96q-1.11 6.07-1.11 31.99 10.79-7.81 10.79-26.04"/><path fill="#ffa14a" d="M906.286 56q1.61-3.59 5.15-3.59 3.53 0 5.27 1.73v35.59q0 7.07 2.23 10.66 2.23 3.6 6.07 3.6 11.66 0 11.66-24.18.12-.74 1.86-.74 2.23 0 2.23 6.57 0 10.54-4.52 16.86-4.53 6.33-12.71 6.33-12.53 0-16.62-11.04-2.36 5.08-6.45 8.06t-9.3 2.98q-21.7 0-21.7-28.4 0-14.38 6.76-21.2t17.92-6.82q8.55 0 12.15 3.59m-23.31 39.68q1.73 5.46 3.97 6.88 2.23 1.43 5.95 1.43t8.12-4.65 4.4-12.09V70.26q0-5.83-3.04-9.42-3.03-3.6-6.82-3.6-3.78 0-6.01.75-2.23.74-4.22 3.1-4.09 4.46-4.09 19.34 0 9.8 1.74 15.25"/><path fill="#ffa14a" d="M937.036 86.75V39.14q0-16.12 3.1-23.38 3.1-7.25 11.91-7.25 4.71 0 7.31 3.97 2.61 3.97 2.61 11.28 0 13.27-13.77 27.03v6.58q4.59-4.96 11.66-4.96 10.79 0 17.73 7.31 6.94 7.32 6.94 20.71t-6.69 20.89q-6.7 7.51-17.3 7.51t-17.05-6.08-6.45-16m35.71-6.32q0-12.9-2.72-18.04-2.73-5.15-9.68-5.15-6.94 0-9.54 4.34-2.61 4.34-2.61 14.88v6.45q0 11.16 2.92 16.12 2.91 4.96 9.61 4.96 6.69 0 9.36-5.33 2.66-5.33 2.66-18.23m-20.58-67.08q-2.48 0-3.22 5.02-.75 5.02-.75 21.02v5.45q8.43-10.91 8.43-21.2t-4.46-10.29m63.86 70.18q-4.96-1.74-9.86-3.66t-8.24-5.52q-3.35-3.59-3.35-9.23 0-5.65 5.21-9.18 5.2-3.53 15.19-3.53 9.98 0 15.62 3.47t5.64 8.06q0 2.23-1.67 3.59-1.68 1.37-3.29 1.37-3.1 0-4.09-1.49.74-.87.74-3.41t-3.84-4.65-8.56-2.11q-4.71 0-7.81 1.74-3.1 1.73-3.1 5.27 0 3.53 3.54 6.14 3.53 2.6 8.55 4.34 5.02 1.73 10.05 3.72 5.02 1.98 8.55 5.64 3.54 3.66 3.54 8.99 0 7.93-6.89 11.84-6.88 3.91-18.1 3.91t-18.23-6.51q-7-6.51-7-16.19 0-3.47 1.36-5.45 1.36-1.99 3.1-1.99 3.22 0 3.72 1.12l.25.37q-.75 1.86-.75 4.59 0 8.31 4.84 13.76 4.84 5.46 13.39 5.46 13.15 0 13.27-9.3 0-7.07-11.78-11.16"/></g><path fill="transparent" stroke="transparent" d="M468.5 0h563v140h-563z"/></g></svg>